<svg width="232" height="988" viewBox="0 0 232 988" fill="none" xmlns="http://www.w3.org/2000/svg">
<g clip-path="url(#clip0_553_4328)">
<path d="M0 12C0 5.37259 5.37258 0 12 0H220C226.627 0 232 5.37258 232 12V976C232 982.627 226.627 988 220 988H12C5.37258 988 0 982.627 0 976V12Z" fill="#181C2A"/>
<g clip-path="url(#clip1_553_4328)">
<rect width="232" height="988" fill="#0E1116"/>
<g opacity="0.8" filter="url(#filter0_f_553_4328)">
<ellipse cx="39" cy="890" rx="147" ry="146" transform="rotate(-90 39 890)" fill="#255D6A"/>
</g>
<g opacity="0.5" filter="url(#filter1_f_553_4328)">
<ellipse cx="20.5" cy="29.5" rx="110.5" ry="110.5" transform="rotate(-90 20.5 29.5)" fill="#255D6A"/>
</g>
<g opacity="0.8" filter="url(#filter2_f_553_4328)">
<ellipse cx="216.5" cy="29.5" rx="110.5" ry="110.5" transform="rotate(-90 216.5 29.5)" fill="#2A2879"/>
</g>
<g opacity="0.8" filter="url(#filter3_f_553_4328)">
<circle cx="212.5" cy="412.5" r="147.5" transform="rotate(-90 212.5 412.5)" fill="#2A2879"/>
</g>
</g>
<path fill-rule="evenodd" clip-rule="evenodd" d="M71 148.75C71.4142 148.75 71.75 149.086 71.75 149.5V163.75H89C89.4142 163.75 89.75 164.086 89.75 164.5C89.75 164.914 89.4142 165.25 89 165.25H71C70.5858 165.25 70.25 164.914 70.25 164.5V149.5C70.25 149.086 70.5858 148.75 71 148.75Z" fill="#F8F9FC"/>
<path fill-rule="evenodd" clip-rule="evenodd" d="M88.0303 150.47C88.3232 150.763 88.3232 151.237 88.0303 151.53L80.5303 159.03C80.2374 159.323 79.7626 159.323 79.4697 159.03L77 156.561L71.5303 162.03C71.2374 162.323 70.7626 162.323 70.4697 162.03C70.1768 161.737 70.1768 161.263 70.4697 160.97L76.4697 154.97C76.7626 154.677 77.2374 154.677 77.5303 154.97L80 157.439L86.9697 150.47C87.2626 150.177 87.7374 150.177 88.0303 150.47Z" fill="#F8F9FC"/>
<path fill-rule="evenodd" clip-rule="evenodd" d="M83 151C83 150.586 83.3358 150.25 83.75 150.25H87.5C87.9142 150.25 88.25 150.586 88.25 151V154.75C88.25 155.164 87.9142 155.5 87.5 155.5C87.0858 155.5 86.75 155.164 86.75 154.75V151.75H83.75C83.3358 151.75 83 151.414 83 151Z" fill="#F8F9FC"/>
<path d="M105.232 162V150.72H107.28V162H105.232ZM109.54 162V154.176H111.492V155.392C111.759 154.944 112.116 154.603 112.564 154.368C113.023 154.133 113.535 154.016 114.1 154.016C115.945 154.016 116.868 155.088 116.868 157.232V162H114.868V157.328C114.868 156.72 114.751 156.277 114.516 156C114.292 155.723 113.94 155.584 113.46 155.584C112.873 155.584 112.404 155.771 112.052 156.144C111.711 156.507 111.54 156.992 111.54 157.6V162H109.54ZM118.899 162V154.176H120.899V162H118.899ZM119.219 153.136L120.867 149.888H122.835L120.563 153.136H119.219ZM126.594 162.16C125.772 162.16 125.058 161.995 124.45 161.664C123.842 161.323 123.372 160.843 123.042 160.224C122.711 159.605 122.546 158.88 122.546 158.048C122.546 157.216 122.711 156.501 123.042 155.904C123.372 155.296 123.842 154.832 124.45 154.512C125.058 154.181 125.772 154.016 126.594 154.016C127.095 154.016 127.591 154.096 128.082 154.256C128.572 154.416 128.978 154.64 129.298 154.928L128.706 156.32C128.428 156.075 128.114 155.888 127.762 155.76C127.42 155.632 127.09 155.568 126.77 155.568C126.076 155.568 125.538 155.787 125.154 156.224C124.78 156.651 124.594 157.264 124.594 158.064C124.594 158.853 124.78 159.477 125.154 159.936C125.538 160.384 126.076 160.608 126.77 160.608C127.079 160.608 127.41 160.544 127.762 160.416C128.114 160.288 128.428 160.096 128.706 159.84L129.298 161.248C128.978 161.525 128.567 161.749 128.066 161.92C127.575 162.08 127.084 162.16 126.594 162.16ZM130.396 152.496V150.544H132.636V152.496H130.396ZM130.524 162V154.176H132.524V162H130.524ZM138.171 162.16C137.36 162.16 136.656 161.995 136.059 161.664C135.461 161.333 134.997 160.864 134.667 160.256C134.336 159.637 134.171 158.912 134.171 158.08C134.171 157.248 134.336 156.528 134.667 155.92C134.997 155.312 135.461 154.843 136.059 154.512C136.656 154.181 137.36 154.016 138.171 154.016C138.981 154.016 139.685 154.181 140.283 154.512C140.88 154.843 141.344 155.312 141.675 155.92C142.005 156.528 142.171 157.248 142.171 158.08C142.171 158.912 142.005 159.637 141.675 160.256C141.344 160.864 140.88 161.333 140.283 161.664C139.685 161.995 138.981 162.16 138.171 162.16ZM138.171 160.64C138.768 160.64 139.248 160.427 139.611 160C139.973 159.563 140.155 158.923 140.155 158.08C140.155 157.227 139.973 156.592 139.611 156.176C139.248 155.749 138.768 155.536 138.171 155.536C137.573 155.536 137.093 155.749 136.731 156.176C136.368 156.592 136.187 157.227 136.187 158.08C136.187 158.923 136.368 159.563 136.731 160C137.093 160.427 137.573 160.64 138.171 160.64Z" fill="#F8F9FC"/>
<rect x="48" y="145" width="4" height="24" rx="2" fill="url(#paint0_linear_553_4328)"/>
<path fill-rule="evenodd" clip-rule="evenodd" d="M77 211.625C77 211.211 77.3358 210.875 77.75 210.875H82.25C82.6642 210.875 83 211.211 83 211.625C83 212.039 82.6642 212.375 82.25 212.375H77.75C77.3358 212.375 77 212.039 77 211.625Z" fill="#8D95AF"/>
<path fill-rule="evenodd" clip-rule="evenodd" d="M81.7225 207.623C82.2859 207.066 83.0465 206.753 83.8391 206.753C84.6316 206.753 85.3922 207.066 85.9556 207.623C86.0227 207.689 86.0766 207.768 86.1146 207.854L90.2115 217.163C90.3783 217.543 90.2062 217.985 89.8271 218.152C89.448 218.319 89.0054 218.147 88.8385 217.768L84.8052 208.603C84.535 208.378 84.1934 208.253 83.8391 208.253C83.5382 208.253 83.2466 208.343 83 208.508V218.75C83 219.164 82.6642 219.5 82.25 219.5C81.8358 219.5 81.5 219.164 81.5 218.75V208.156C81.5 207.956 81.5801 207.764 81.7225 207.623Z" fill="#8D95AF"/>
<path fill-rule="evenodd" clip-rule="evenodd" d="M74.0444 207.623C74.6078 207.066 75.3684 206.753 76.161 206.753C76.9535 206.753 77.7141 207.066 78.2775 207.623C78.4199 207.764 78.5 207.956 78.5 208.156V218.75C78.5 219.164 78.1643 219.5 77.75 219.5C77.3358 219.5 77 219.164 77 218.75V208.508C76.7535 208.343 76.4618 208.253 76.161 208.253C75.8066 208.253 75.465 208.378 75.1948 208.603L71.1615 217.768C70.9947 218.147 70.5521 218.319 70.1729 218.152C69.7938 217.985 69.6217 217.543 69.7886 217.163L73.8855 207.854C73.9234 207.768 73.9774 207.689 74.0444 207.623Z" fill="#8D95AF"/>
<path fill-rule="evenodd" clip-rule="evenodd" d="M74 215.75C72.3431 215.75 71 217.093 71 218.75C71 220.407 72.3431 221.75 74 221.75C75.6569 221.75 77 220.407 77 218.75C77 217.093 75.6569 215.75 74 215.75ZM69.5 218.75C69.5 216.265 71.5147 214.25 74 214.25C76.4853 214.25 78.5 216.265 78.5 218.75C78.5 221.235 76.4853 223.25 74 223.25C71.5147 223.25 69.5 221.235 69.5 218.75Z" fill="#8D95AF"/>
<path fill-rule="evenodd" clip-rule="evenodd" d="M86 215.75C84.3431 215.75 83 217.093 83 218.75C83 220.407 84.3431 221.75 86 221.75C87.6569 221.75 89 220.407 89 218.75C89 217.093 87.6569 215.75 86 215.75ZM81.5 218.75C81.5 216.265 83.5147 214.25 86 214.25C88.4853 214.25 90.5 216.265 90.5 218.75C90.5 221.235 88.4853 223.25 86 223.25C83.5147 223.25 81.5 221.235 81.5 218.75Z" fill="#8D95AF"/>
<path d="M105.392 220V208.72H112.512V209.824H106.672V213.728H112.176V214.832H106.672V218.896H112.512V220H105.392ZM113.552 220L116.784 215.984L113.744 212.224H115.28L117.536 215.088L119.808 212.224H121.328L118.288 215.984L121.52 220H119.984L117.52 216.912L115.088 220H113.552ZM122.95 222.88V212.224H124.214V213.616C124.449 213.136 124.796 212.763 125.254 212.496C125.724 212.219 126.268 212.08 126.886 212.08C127.58 212.08 128.182 212.245 128.694 212.576C129.217 212.896 129.617 213.36 129.894 213.968C130.182 214.565 130.326 215.28 130.326 216.112C130.326 216.933 130.182 217.648 129.894 218.256C129.617 218.853 129.217 219.317 128.694 219.648C128.182 219.979 127.58 220.144 126.886 220.144C126.289 220.144 125.756 220.011 125.286 219.744C124.817 219.477 124.47 219.109 124.246 218.64V222.88H122.95ZM126.614 219.104C127.34 219.104 127.921 218.848 128.358 218.336C128.796 217.813 129.014 217.072 129.014 216.112C129.014 215.141 128.796 214.4 128.358 213.888C127.921 213.376 127.34 213.12 126.614 213.12C125.889 213.12 125.308 213.376 124.87 213.888C124.433 214.4 124.214 215.141 124.214 216.112C124.214 217.072 124.433 217.813 124.87 218.336C125.308 218.848 125.889 219.104 126.614 219.104ZM134.663 220.144C133.873 220.144 133.276 219.915 132.871 219.456C132.476 218.987 132.279 218.309 132.279 217.424V208.72H133.575V217.328C133.575 218.469 134.028 219.04 134.935 219.04C135.201 219.04 135.441 219.008 135.655 218.944L135.623 220.032C135.292 220.107 134.972 220.144 134.663 220.144ZM140.167 220.144C139.409 220.144 138.753 219.979 138.199 219.648C137.644 219.317 137.212 218.853 136.903 218.256C136.604 217.648 136.455 216.933 136.455 216.112C136.455 215.291 136.604 214.581 136.903 213.984C137.212 213.376 137.644 212.907 138.199 212.576C138.753 212.245 139.409 212.08 140.167 212.08C140.913 212.08 141.564 212.245 142.119 212.576C142.684 212.907 143.116 213.376 143.415 213.984C143.724 214.581 143.879 215.291 143.879 216.112C143.879 216.933 143.724 217.648 143.415 218.256C143.116 218.853 142.684 219.317 142.119 219.648C141.564 219.979 140.913 220.144 140.167 220.144ZM140.167 219.104C140.892 219.104 141.473 218.848 141.911 218.336C142.348 217.813 142.567 217.072 142.567 216.112C142.567 215.141 142.348 214.4 141.911 213.888C141.473 213.376 140.892 213.12 140.167 213.12C139.431 213.12 138.844 213.376 138.407 213.888C137.98 214.4 137.767 215.141 137.767 216.112C137.767 217.072 137.98 217.813 138.407 218.336C138.844 218.848 139.431 219.104 140.167 219.104ZM145.825 220V212.224H147.089V213.616C147.505 212.677 148.359 212.16 149.649 212.064L150.113 212.016L150.209 213.136L149.393 213.232C148.657 213.296 148.097 213.531 147.713 213.936C147.329 214.331 147.137 214.875 147.137 215.568V220H145.825ZM153.93 220.144C153.396 220.144 152.916 220.043 152.49 219.84C152.074 219.627 151.743 219.339 151.498 218.976C151.252 218.613 151.13 218.208 151.13 217.76C151.13 217.195 151.274 216.747 151.562 216.416C151.86 216.085 152.346 215.851 153.018 215.712C153.7 215.563 154.628 215.488 155.802 215.488H156.314V214.992C156.314 214.331 156.175 213.856 155.898 213.568C155.631 213.269 155.199 213.12 154.602 213.12C154.132 213.12 153.679 213.189 153.242 213.328C152.804 213.456 152.356 213.669 151.898 213.968L151.45 213.024C151.855 212.736 152.346 212.507 152.922 212.336C153.508 212.165 154.068 212.08 154.602 212.08C155.604 212.08 156.346 212.325 156.826 212.816C157.316 213.307 157.562 214.069 157.562 215.104V220H156.346V218.656C156.143 219.115 155.828 219.477 155.402 219.744C154.986 220.011 154.495 220.144 153.93 220.144ZM154.138 219.168C154.778 219.168 155.3 218.949 155.706 218.512C156.111 218.064 156.314 217.499 156.314 216.816V216.336H155.818C154.954 216.336 154.271 216.379 153.77 216.464C153.279 216.539 152.932 216.677 152.73 216.88C152.538 217.072 152.442 217.339 152.442 217.68C152.442 218.117 152.591 218.475 152.89 218.752C153.199 219.029 153.615 219.168 154.138 219.168ZM159.966 220V212.224H161.23V213.616C161.646 212.677 162.499 212.16 163.79 212.064L164.254 212.016L164.35 213.136L163.534 213.232C162.798 213.296 162.238 213.531 161.854 213.936C161.47 214.331 161.278 214.875 161.278 215.568V220H159.966Z" fill="#8D95AF"/>
<g opacity="0.9">
<path d="M71 67.3L70.4 66.8C68.4 64.9 67 63.7 67 62.2C67 61 68 60 69.2 60C69.9 60 70.6 60.3 71 60.8C71.4 60.3 72.1 60 72.8 60C74 60 75 60.9 75 62.2C75 63.7 73.6 64.9 71.6 66.8L71 67.3Z" fill="#50B2C0"/>
<path d="M70 46C71.1 46 72 46.9 72 48V57.08L71 57L70 57.08V48H65V56L62.5 53.75L60 56V48H58V64H65.08C65.2 64.72 65.45 65.39 65.8 66H58C56.9 66 56 65.1 56 64V48C56 46.9 56.9 46 58 46H70Z" fill="#8381D9"/>
<path d="M85.7861 63V48.9H91.9461C93.4261 48.9 94.5728 49.2267 95.3861 49.88C96.1994 50.52 96.6061 51.4133 96.6061 52.56C96.6061 53.32 96.4128 53.9733 96.0261 54.52C95.6394 55.0667 95.1061 55.4667 94.4261 55.72C95.2261 55.9467 95.8461 56.3467 96.2861 56.92C96.7394 57.48 96.9661 58.1933 96.9661 59.06C96.9661 60.3133 96.5394 61.2867 95.6861 61.98C94.8461 62.66 93.6728 63 92.1661 63H85.7861ZM88.2461 54.88H91.5061C93.2528 54.88 94.1261 54.2067 94.1261 52.86C94.1261 51.5133 93.2528 50.84 91.5061 50.84H88.2461V54.88ZM88.2461 61.06H91.8461C93.6061 61.06 94.4861 60.3533 94.4861 58.94C94.4861 57.5267 93.6061 56.82 91.8461 56.82H88.2461V61.06ZM103.776 63.2C102.762 63.2 101.882 62.9933 101.136 62.58C100.389 62.1667 99.809 61.58 99.3956 60.82C98.9823 60.0467 98.7756 59.14 98.7756 58.1C98.7756 57.06 98.9823 56.16 99.3956 55.4C99.809 54.64 100.389 54.0533 101.136 53.64C101.882 53.2267 102.762 53.02 103.776 53.02C104.789 53.02 105.669 53.2267 106.416 53.64C107.162 54.0533 107.742 54.64 108.156 55.4C108.569 56.16 108.776 57.06 108.776 58.1C108.776 59.14 108.569 60.0467 108.156 60.82C107.742 61.58 107.162 62.1667 106.416 62.58C105.669 62.9933 104.789 63.2 103.776 63.2ZM103.776 61.3C104.522 61.3 105.122 61.0333 105.576 60.5C106.029 59.9533 106.256 59.1533 106.256 58.1C106.256 57.0333 106.029 56.24 105.576 55.72C105.122 55.1867 104.522 54.92 103.776 54.92C103.029 54.92 102.429 55.1867 101.976 55.72C101.522 56.24 101.296 57.0333 101.296 58.1C101.296 59.1533 101.522 59.9533 101.976 60.5C102.429 61.0333 103.029 61.3 103.776 61.3ZM115.299 63.2C114.286 63.2 113.406 62.9933 112.659 62.58C111.912 62.1667 111.332 61.58 110.919 60.82C110.506 60.0467 110.299 59.14 110.299 58.1C110.299 57.06 110.506 56.16 110.919 55.4C111.332 54.64 111.912 54.0533 112.659 53.64C113.406 53.2267 114.286 53.02 115.299 53.02C116.312 53.02 117.192 53.2267 117.939 53.64C118.686 54.0533 119.266 54.64 119.679 55.4C120.092 56.16 120.299 57.06 120.299 58.1C120.299 59.14 120.092 60.0467 119.679 60.82C119.266 61.58 118.686 62.1667 117.939 62.58C117.192 62.9933 116.312 63.2 115.299 63.2ZM115.299 61.3C116.046 61.3 116.646 61.0333 117.099 60.5C117.552 59.9533 117.779 59.1533 117.779 58.1C117.779 57.0333 117.552 56.24 117.099 55.72C116.646 55.1867 116.046 54.92 115.299 54.92C114.552 54.92 113.952 55.1867 113.499 55.72C113.046 56.24 112.819 57.0333 112.819 58.1C112.819 59.1533 113.046 59.9533 113.499 60.5C113.952 61.0333 114.552 61.3 115.299 61.3ZM122.363 63V48.9H124.863V57.38H124.903L128.843 53.22H131.863L127.423 57.9L132.143 63H129.083L124.903 58.64H124.863V63H122.363ZM137.205 63L132.225 48.9H134.865L138.365 59.3L142.045 48.9H143.945L147.545 59.44L151.145 48.9H153.645L148.625 63H146.505L142.925 52.82L139.325 63H137.205ZM155.191 51.12V48.68H157.991V51.12H155.191ZM155.351 63V53.22H157.851V63H155.351ZM164.028 63.2C163.202 63.2 162.428 63.1 161.708 62.9C160.988 62.7 160.388 62.4133 159.908 62.04L160.548 60.4C161.042 60.7333 161.595 60.9933 162.208 61.18C162.822 61.3533 163.435 61.44 164.048 61.44C164.688 61.44 165.162 61.3333 165.468 61.12C165.788 60.8933 165.948 60.6 165.948 60.24C165.948 59.68 165.535 59.32 164.708 59.16L162.708 58.78C161.015 58.46 160.168 57.58 160.168 56.14C160.168 55.5 160.342 54.9467 160.688 54.48C161.048 54.0133 161.542 53.6533 162.168 53.4C162.795 53.1467 163.515 53.02 164.328 53.02C165.022 53.02 165.688 53.12 166.328 53.32C166.968 53.5067 167.515 53.7933 167.968 54.18L167.288 55.82C166.902 55.5 166.435 55.2467 165.888 55.06C165.355 54.8733 164.842 54.78 164.348 54.78C163.695 54.78 163.208 54.8933 162.888 55.12C162.582 55.3467 162.428 55.6467 162.428 56.02C162.428 56.6067 162.808 56.9667 163.568 57.1L165.568 57.48C166.435 57.64 167.088 57.9333 167.528 58.36C167.982 58.7867 168.208 59.36 168.208 60.08C168.208 61.0533 167.828 61.82 167.068 62.38C166.308 62.9267 165.295 63.2 164.028 63.2ZM175.034 63.2C173.927 63.2 172.974 62.9933 172.174 62.58C171.374 62.1667 170.754 61.58 170.314 60.82C169.887 60.06 169.674 59.16 169.674 58.12C169.674 57.1067 169.881 56.22 170.294 55.46C170.721 54.7 171.301 54.1067 172.034 53.68C172.781 53.24 173.627 53.02 174.574 53.02C175.961 53.02 177.054 53.46 177.854 54.34C178.667 55.22 179.074 56.42 179.074 57.94V58.68H172.074C172.261 60.4267 173.261 61.3 175.074 61.3C175.621 61.3 176.167 61.22 176.714 61.06C177.261 60.8867 177.761 60.62 178.214 60.26L178.914 61.94C178.447 62.3267 177.861 62.6333 177.154 62.86C176.447 63.0867 175.741 63.2 175.034 63.2ZM174.674 54.72C173.941 54.72 173.347 54.9467 172.894 55.4C172.441 55.8533 172.167 56.4667 172.074 57.24H176.994C176.941 56.4267 176.714 55.8067 176.314 55.38C175.927 54.94 175.381 54.72 174.674 54.72Z" fill="url(#paint1_linear_553_4328)"/>
</g>
<path d="M61.0133 952V940.72H68.3893V942.352H63.0613V945.536H68.0533V947.168H63.0613V952H61.0133ZM72.0691 952.16C71.5038 952.16 70.9971 952.053 70.5491 951.84C70.1118 951.616 69.7651 951.317 69.5091 950.944C69.2638 950.571 69.1411 950.149 69.1411 949.68C69.1411 949.104 69.2905 948.651 69.5891 948.32C69.8878 947.979 70.3731 947.733 71.0451 947.584C71.7171 947.435 72.6185 947.36 73.7491 947.36H74.3091V947.024C74.3091 946.491 74.1918 946.107 73.9571 945.872C73.7225 945.637 73.3278 945.52 72.7731 945.52C72.3358 945.52 71.8878 945.589 71.4291 945.728C70.9705 945.856 70.5065 946.059 70.0371 946.336L69.4611 944.976C69.7385 944.784 70.0638 944.619 70.4371 944.48C70.8211 944.331 71.2211 944.219 71.6371 944.144C72.0638 944.059 72.4638 944.016 72.8371 944.016C73.9785 944.016 74.8265 944.283 75.3811 944.816C75.9358 945.339 76.2131 946.155 76.2131 947.264V952H74.3411V950.752C74.1598 951.189 73.8718 951.536 73.4771 951.792C73.0825 952.037 72.6131 952.16 72.0691 952.16ZM72.4851 950.784C73.0078 950.784 73.4398 950.603 73.7811 950.24C74.1331 949.877 74.3091 949.419 74.3091 948.864V948.512H73.7651C72.7625 948.512 72.0638 948.592 71.6691 948.752C71.2851 948.901 71.0931 949.179 71.0931 949.584C71.0931 949.936 71.2158 950.224 71.4611 950.448C71.7065 950.672 72.0478 950.784 72.4851 950.784ZM77.9871 952V950.704L82.0191 945.68H77.9871V944.176H84.1951V945.472L80.1631 950.496H84.3711V952H77.9871ZM89.521 952.16C88.6357 952.16 87.873 951.995 87.233 951.664C86.593 951.333 86.097 950.864 85.745 950.256C85.4037 949.648 85.233 948.928 85.233 948.096C85.233 947.285 85.3983 946.576 85.729 945.968C86.0703 945.36 86.5343 944.885 87.121 944.544C87.7183 944.192 88.3957 944.016 89.153 944.016C90.2623 944.016 91.137 944.368 91.777 945.072C92.4277 945.776 92.753 946.736 92.753 947.952V948.544H87.153C87.3023 949.941 88.1023 950.64 89.553 950.64C89.9903 950.64 90.4277 950.576 90.865 950.448C91.3023 950.309 91.7023 950.096 92.065 949.808L92.625 951.152C92.2517 951.461 91.7823 951.707 91.217 951.888C90.6517 952.069 90.0863 952.16 89.521 952.16ZM89.233 945.376C88.6463 945.376 88.1717 945.557 87.809 945.92C87.4463 946.283 87.2277 946.773 87.153 947.392H91.089C91.0463 946.741 90.865 946.245 90.545 945.904C90.2357 945.552 89.7983 945.376 89.233 945.376ZM94.3369 952V944.176H96.2889V945.552C96.6729 944.624 97.4942 944.112 98.7529 944.016L99.3609 943.968L99.4889 945.664L98.3369 945.776C97.0249 945.904 96.3689 946.576 96.3689 947.792V952H94.3369ZM107.635 952.16C106.707 952.16 106.019 951.909 105.571 951.408C105.134 950.896 104.915 950.149 104.915 949.168V940.72H106.915V949.072C106.915 950.032 107.32 950.512 108.131 950.512C108.248 950.512 108.366 950.507 108.483 950.496C108.6 950.485 108.712 950.464 108.819 950.432L108.787 952.016C108.403 952.112 108.019 952.16 107.635 952.16ZM113.514 952.16C112.704 952.16 112 951.995 111.402 951.664C110.805 951.333 110.341 950.864 110.01 950.256C109.68 949.637 109.514 948.912 109.514 948.08C109.514 947.248 109.68 946.528 110.01 945.92C110.341 945.312 110.805 944.843 111.402 944.512C112 944.181 112.704 944.016 113.514 944.016C114.325 944.016 115.029 944.181 115.626 944.512C116.224 944.843 116.688 945.312 117.018 945.92C117.349 946.528 117.514 947.248 117.514 948.08C117.514 948.912 117.349 949.637 117.018 950.256C116.688 950.864 116.224 951.333 115.626 951.664C115.029 951.995 114.325 952.16 113.514 952.16ZM113.514 950.64C114.112 950.64 114.592 950.427 114.954 950C115.317 949.563 115.498 948.923 115.498 948.08C115.498 947.227 115.317 946.592 114.954 946.176C114.592 945.749 114.112 945.536 113.514 945.536C112.917 945.536 112.437 945.749 112.074 946.176C111.712 946.592 111.53 947.227 111.53 948.08C111.53 948.923 111.712 949.563 112.074 950C112.437 950.427 112.917 950.64 113.514 950.64ZM122.813 955.04C122.088 955.04 121.405 954.955 120.765 954.784C120.136 954.624 119.581 954.373 119.101 954.032L119.677 952.64C120.125 952.939 120.605 953.157 121.117 953.296C121.629 953.445 122.141 953.52 122.653 953.52C124.082 953.52 124.797 952.832 124.797 951.456V950.384C124.573 950.821 124.226 951.168 123.757 951.424C123.298 951.68 122.786 951.808 122.221 951.808C121.517 951.808 120.904 951.648 120.381 951.328C119.858 950.997 119.453 950.539 119.165 949.952C118.877 949.365 118.733 948.683 118.733 947.904C118.733 947.125 118.877 946.448 119.165 945.872C119.453 945.285 119.858 944.832 120.381 944.512C120.904 944.181 121.517 944.016 122.221 944.016C122.808 944.016 123.33 944.149 123.789 944.416C124.248 944.672 124.584 945.019 124.797 945.456V944.176H126.749V951.216C126.749 952.485 126.413 953.44 125.741 954.08C125.069 954.72 124.093 955.04 122.813 955.04ZM122.765 950.288C123.384 950.288 123.874 950.075 124.237 949.648C124.6 949.221 124.781 948.64 124.781 947.904C124.781 947.168 124.6 946.592 124.237 946.176C123.874 945.749 123.384 945.536 122.765 945.536C122.146 945.536 121.656 945.749 121.293 946.176C120.93 946.592 120.749 947.168 120.749 947.904C120.749 948.64 120.93 949.221 121.293 949.648C121.656 950.075 122.146 950.288 122.765 950.288ZM128.693 942.496V940.544H130.933V942.496H128.693ZM128.821 952V944.176H130.821V952H128.821ZM132.899 952V944.176H134.851V945.392C135.118 944.944 135.475 944.603 135.923 944.368C136.382 944.133 136.894 944.016 137.459 944.016C139.305 944.016 140.227 945.088 140.227 947.232V952H138.227V947.328C138.227 946.72 138.11 946.277 137.875 946C137.651 945.723 137.299 945.584 136.819 945.584C136.233 945.584 135.763 945.771 135.411 946.144C135.07 946.507 134.899 946.992 134.899 947.6V952H132.899Z" fill="#E6E8F2"/>
<path fill-rule="evenodd" clip-rule="evenodd" d="M160.402 943.277C160.646 943.033 161.042 943.033 161.286 943.277L164.567 946.558C164.811 946.802 164.811 947.198 164.567 947.442L161.286 950.723C161.042 950.967 160.646 950.967 160.402 950.723C160.158 950.479 160.158 950.083 160.402 949.839L163.241 947L160.402 944.161C160.158 943.917 160.158 943.521 160.402 943.277Z" fill="#50B2C0"/>
<path fill-rule="evenodd" clip-rule="evenodd" d="M154.75 947C154.75 946.655 155.03 946.375 155.375 946.375H164.125C164.47 946.375 164.75 946.655 164.75 947C164.75 947.345 164.47 947.625 164.125 947.625H155.375C155.03 947.625 154.75 947.345 154.75 947Z" fill="#50B2C0"/>
<path fill-rule="evenodd" clip-rule="evenodd" d="M163.5 940.125C163.5 939.78 163.78 939.5 164.125 939.5H168.5C168.832 939.5 169.149 939.632 169.384 939.866C169.618 940.101 169.75 940.418 169.75 940.75V953.25C169.75 953.582 169.618 953.899 169.384 954.134C169.149 954.368 168.832 954.5 168.5 954.5H164.125C163.78 954.5 163.5 954.22 163.5 953.875C163.5 953.53 163.78 953.25 164.125 953.25H168.5L168.5 940.75L164.125 940.75C163.78 940.75 163.5 940.47 163.5 940.125Z" fill="#50B2C0"/>
</g>
<defs>
<filter id="filter0_f_553_4328" x="-631.81" y="218.19" width="1341.62" height="1343.62" filterUnits="userSpaceOnUse" color-interpolation-filters="sRGB">
<feFlood flood-opacity="0" result="BackgroundImageFix"/>
<feBlend mode="normal" in="SourceGraphic" in2="BackgroundImageFix" result="shape"/>
<feGaussianBlur stdDeviation="262.405" result="effect1_foregroundBlur_553_4328"/>
</filter>
<filter id="filter1_f_553_4328" x="-279.31" y="-270.31" width="599.62" height="599.62" filterUnits="userSpaceOnUse" color-interpolation-filters="sRGB">
<feFlood flood-opacity="0" result="BackgroundImageFix"/>
<feBlend mode="normal" in="SourceGraphic" in2="BackgroundImageFix" result="shape"/>
<feGaussianBlur stdDeviation="94.655" result="effect1_foregroundBlur_553_4328"/>
</filter>
<filter id="filter2_f_553_4328" x="-83.31" y="-270.31" width="599.62" height="599.62" filterUnits="userSpaceOnUse" color-interpolation-filters="sRGB">
<feFlood flood-opacity="0" result="BackgroundImageFix"/>
<feBlend mode="normal" in="SourceGraphic" in2="BackgroundImageFix" result="shape"/>
<feGaussianBlur stdDeviation="94.655" result="effect1_foregroundBlur_553_4328"/>
</filter>
<filter id="filter3_f_553_4328" x="-388.31" y="-188.31" width="1201.62" height="1201.62" filterUnits="userSpaceOnUse" color-interpolation-filters="sRGB">
<feFlood flood-opacity="0" result="BackgroundImageFix"/>
<feBlend mode="normal" in="SourceGraphic" in2="BackgroundImageFix" result="shape"/>
<feGaussianBlur stdDeviation="226.655" result="effect1_foregroundBlur_553_4328"/>
</filter>
<linearGradient id="paint0_linear_553_4328" x1="50.0227" y1="145" x2="50.0227" y2="169" gradientUnits="userSpaceOnUse">
<stop stop-color="#7FD1CC"/>
<stop offset="1" stop-color="#9694F5"/>
</linearGradient>
<linearGradient id="paint1_linear_553_4328" x1="84" y1="56.3137" x2="180" y2="56.3137" gradientUnits="userSpaceOnUse">
<stop stop-color="#7FD1CC"/>
<stop offset="1" stop-color="#9694F5"/>
</linearGradient>
<clipPath id="clip0_553_4328">
<path d="M0 12C0 5.37259 5.37258 0 12 0H220C226.627 0 232 5.37258 232 12V976C232 982.627 226.627 988 220 988H12C5.37258 988 0 982.627 0 976V12Z" fill="white"/>
</clipPath>
<clipPath id="clip1_553_4328">
<rect width="232" height="988" fill="white"/>
</clipPath>
</defs>
</svg>
